{
	"asset":{
		"generator":"Khronos glTF Blender I/O v4.1.62",
		"version":"2.0"
	},
	"extensionsUsed":[
		"KHR_materials_specular"
	],
	"scene":0,
	"scenes":[
		{
			"name":"Scene",
			"nodes":[
				36
			]
		}
	],
	"nodes":[
		{
			"name":"head0_end",
			"rotation":[
				-7.47957074054284e-09,
				1.4784745872020721e-08,
				2.0954757928848267e-09,
				1
			],
			"translation":[
				4.6566128730773926e-09,
				15.32304859161377,
				-2.2178865037858486e-06
			]
		},
		{
			"children":[
				0
			],
			"name":"head0",
			"rotation":[
				0.23141053318977356,
				0.087154820561409,
				0.05299265310168266,
				0.9674941897392273
			],
			"scale":[
				0.9999999403953552,
				1,
				1.0000001192092896
			],
			"translation":[
				-1.2293457984924316e-07,
				7.580904483795166,
				1.6926787793636322e-06
			]
		},
		{
			"children":[
				1
			],
			"name":"neck1",
			"rotation":[
				0.11986260861158371,
				-0.11436755955219269,
				-0.13165606558322906,
				0.9773534536361694
			],
			"scale":[
				1,
				0.9999999403953552,
				0.9999999403953552
			],
			"translation":[
				1.1920928955078125e-07,
				9.727150917053223,
				5.960464477539063e-08
			]
		},
		{
			"children":[
				2
			],
			"name":"neck0",
			"rotation":[
				-0.2371656596660614,
				0.05921841785311699,
				0.047679562121629715,
				0.9684897065162659
			],
			"scale":[
				1,
				1,
				1.0000001192092896
			],
			"translation":[
				-7.450580596923828e-09,
				9.936104774475098,
				-9.275390766561031e-08
			]
		},
		{
			"name":"leg_front_right_bot2_end",
			"rotation":[
				1.490114875934978e-08,
				-1.3806855747588997e-07,
				-1.639127447106148e-07,
				1
			],
			"translation":[
				-1.076609805750195e-06,
				3.0000007152557373,
				6.68302277517796e-07
			]
		},
		{
			"children":[
				4
			],
			"name":"leg_front_right_bot2",
			"rotation":[
				-0.627051055431366,
				-0.052591968327760696,
				-0.05259207636117935,
				0.7754193544387817
			],
			"translation":[
				-5.662441253662109e-07,
				9.611587524414062,
				7.152557373046875e-07
			]
		},
		{
			"children":[
				5
			],
			"name":"lleg_front_right_bot1",
			"rotation":[
				-0.0615299791097641,
				0.012357144616544247,
				-0.003307424020022154,
				0.998023271560669
			],
			"translation":[
				2.980232238769531e-07,
				9.234855651855469,
				1.1920928955078125e-07
			]
		},
		{
			"children":[
				6
			],
			"name":"leg_front_right_bot0",
			"rotation":[
				0.022402163594961166,
				0.0621887668967247,
				0.0041093165054917336,
				0.9978045225143433
			],
			"scale":[
				1,
				1,
				1.0000001192092896
			],
			"translation":[
				2.55581426245044e-07,
				15.198826789855957,
				3.0547744245268404e-07
			]
		},
		{
			"children":[
				7
			],
			"name":"leg_front_right_top1",
			"rotation":[
				-0.6791012287139893,
				0.7238229513168335,
				0.04783318564295769,
				0.11231127381324768
			],
			"scale":[
				0.9999998211860657,
				0.9999997615814209,
				0.9999998807907104
			],
			"translation":[
				-1.043081283569336e-06,
				9.01298713684082,
				5.960464477539062e-07
			]
		},
		{
			"children":[
				8
			],
			"name":"leg_front_right_top0",
			"rotation":[
				-0.6241376399993896,
				0.5701175928115845,
				0.45043259859085083,
				0.2872779965400696
			],
			"scale":[
				1.0000001192092896,
				1.0000001192092896,
				1.0000001192092896
			],
			"translation":[
				-0.48019903898239136,
				10.081855773925781,
				1.0487066507339478
			]
		},
		{
			"name":"leg_front_left_bot2_end",
			"rotation":[
				-1.4901160305669237e-08,
				-1.6950068015830766e-07,
				-1.7136332530753862e-07,
				1
			],
			"scale":[
				1,
				0.9999998807907104,
				1
			],
			"translation":[
				1.1209431249881163e-06,
				3.000000476837158,
				4.619205355993472e-07
			]
		},
		{
			"children":[
				10
			],
			"name":"leg_front_left_bot2",
			"rotation":[
				-0.6270509958267212,
				0.052592284977436066,
				0.05259213596582413,
				0.7754193544387817
			],
			"scale":[
				1,
				1,
				0.9999999403953552
			],
			"translation":[
				9.834766387939453e-07,
				9.611584663391113,
				5.960464477539062e-07
			]
		},
		{
			"children":[
				11
			],
			"name":"leg_front_left_bot1",
			"rotation":[
				-0.06153007596731186,
				-0.012359590269625187,
				0.003307164181023836,
				0.998023271560669
			],
			"translation":[
				6.631016731262207e-07,
				9.234854698181152,
				4.76837158203125e-07
			]
		},
		{
			"children":[
				12
			],
			"name":"leg_front_left_bot0",
			"rotation":[
				0.02240225113928318,
				-0.062185369431972504,
				-0.0041092257015407085,
				0.9978047609329224
			],
			"scale":[
				1,
				0.9999999403953552,
				1
			],
			"translation":[
				5.004611693948391e-07,
				15.19882583618164,
				-2.922824933193624e-07
			]
		},
		{
			"children":[
				13
			],
			"name":"leg_front_left_top1",
			"rotation":[
				-0.678823709487915,
				-0.7238123416900635,
				-0.04783196374773979,
				0.11404453963041306
			],
			"scale":[
				0.9999998807907104,
				0.9999999403953552,
				0.9999998807907104
			],
			"translation":[
				-1.7881393432617188e-07,
				8.915780067443848,
				0
			]
		},
		{
			"children":[
				14
			],
			"name":"leg_front_left_top0",
			"rotation":[
				-0.6248862147331238,
				-0.5713949799537659,
				-0.4449629783630371,
				0.29160401225090027
			],
			"scale":[
				1.0000001192092896,
				1.0000001192092896,
				1.0000001192092896
			],
			"translation":[
				0.49184203147888184,
				10.08581829071045,
				1.0432370901107788
			]
		},
		{
			"children":[
				3,
				9,
				15
			],
			"name":"body_top1",
			"rotation":[
				0.07052031904459,
				-0.0030222588684409857,
				-0.002736042719334364,
				0.9975020289421082
			],
			"scale":[
				1,
				0.9999999403953552,
				0.9999998807907104
			],
			"translation":[
				0,
				9.748047828674316,
				-8.940696716308594e-08
			]
		},
		{
			"children":[
				16
			],
			"name":"body_top0",
			"rotation":[
				0.05746283754706383,
				0,
				0,
				0.9983476400375366
			],
			"translation":[
				0,
				9.201014518737793,
				-2.2649765014648438e-06
			]
		},
		{
			"name":"tail0_end",
			"rotation":[
				3.911555097602104e-07,
				-6.332993507385254e-08,
				2.2165480118019332e-07,
				1
			],
			"scale":[
				0.9999999403953552,
				0.9999998807907104,
				1
			],
			"translation":[
				3.4868717193603516e-06,
				1.8466212749481201,
				2.384185791015625e-07
			]
		},
		{
			"children":[
				18
			],
			"name":"tail0",
			"rotation":[
				-0.13417315483093262,
				0.3309696614742279,
				-0.28748711943626404,
				0.8887113332748413
			],
			"scale":[
				0.9999999403953552,
				1,
				1
			],
			"translation":[
				1.1920928955078125e-07,
				5.543862819671631,
				-2.3543834686279297e-06
			]
		},
		{
			"children":[
				19
			],
			"name":"pelvis",
			"rotation":[
				0.0014890591846778989,
				-0.11449413001537323,
				0.10943884402513504,
				0.98737633228302
			],
			"scale":[
				0.9999999403953552,
				1.0000001192092896,
				1
			],
			"translation":[
				0,
				9.555548667907715,
				7.152557373046875e-07
			]
		},
		{
			"name":"leg_hind_right_bot2_end",
			"rotation":[
				3.1292444191421964e-07,
				4.028231614938704e-08,
				-4.862129796001646e-12,
				1
			],
			"translation":[
				2.942187506960181e-07,
				2.9999959468841553,
				6.887130439281464e-07
			]
		},
		{
			"children":[
				21
			],
			"name":"leg_hind_right_bot2",
			"rotation":[
				-0.7821319699287415,
				-0.052535176277160645,
				-0.05252426490187645,
				0.6186686158180237
			],
			"scale":[
				0.9999998211860657,
				0.9999998807907104,
				0.9999999403953552
			],
			"translation":[
				-5.364418029785156e-07,
				8.734167098999023,
				2.5033950805664062e-06
			]
		},
		{
			"children":[
				22
			],
			"name":"leg_hind_right_bot1",
			"rotation":[
				0.08091870695352554,
				-0.9377217888832092,
				0.11549760401248932,
				0.31747499108314514
			],
			"scale":[
				0.9999998211860657,
				0.9999997019767761,
				0.9999998807907104
			],
			"translation":[
				1.3113021850585938e-06,
				9.45206356048584,
				3.5762786865234375e-07
			]
		},
		{
			"children":[
				23
			],
			"name":"leg_hind_right_bot0",
			"rotation":[
				-0.036010630428791046,
				0.9638659358024597,
				0.060502320528030396,
				0.2569146752357483
			],
			"scale":[
				0.9999999403953552,
				0.9999996423721313,
				0.9999999403953552
			],
			"translation":[
				-2.817448603309458e-07,
				15.993694305419922,
				1.2994687494938262e-06
			]
		},
		{
			"children":[
				24
			],
			"name":"leg_hind_right_top1",
			"rotation":[
				0.5312792658805847,
				-0.841183066368103,
				-0.05281137302517891,
				0.08581633120775223
			],
			"scale":[
				0.9999998807907104,
				0.9999999403953552,
				0.9999999403953552
			],
			"translation":[
				-7.152557373046875e-07,
				8.416003227233887,
				1.5497207641601562e-06
			]
		},
		{
			"children":[
				25
			],
			"name":"leg_hind_right_top0",
			"rotation":[
				0.4233676791191101,
				-0.6092810034751892,
				0.5823697447776794,
				0.33223792910575867
			],
			"scale":[
				1,
				1.0000003576278687,
				1
			],
			"translation":[
				-0.4514428675174713,
				9.582276344299316,
				-1.2132456302642822
			]
		},
		{
			"name":"leg_hind_left_bot2_end",
			"rotation":[
				3.1292444191421964e-07,
				-4.028231614938704e-08,
				4.862129796001646e-12,
				1
			],
			"translation":[
				-2.942187506960181e-07,
				2.9999959468841553,
				6.887130439281464e-07
			]
		},
		{
			"children":[
				27
			],
			"name":"leg_hind_left_bot2",
			"rotation":[
				-0.7821319699287415,
				0.052535176277160645,
				0.05252426490187645,
				0.6186686158180237
			],
			"scale":[
				0.9999998211860657,
				0.9999998807907104,
				0.9999999403953552
			],
			"translation":[
				5.364418029785156e-07,
				8.734167098999023,
				2.5033950805664062e-06
			]
		},
		{
			"children":[
				28
			],
			"name":"leg_hind_left_bot1",
			"rotation":[
				0.08091870695352554,
				0.9377217888832092,
				-0.11549760401248932,
				0.31747499108314514
			],
			"scale":[
				0.9999998211860657,
				0.9999997019767761,
				0.9999998807907104
			],
			"translation":[
				-1.3113021850585938e-06,
				9.45206356048584,
				3.5762786865234375e-07
			]
		},
		{
			"children":[
				29
			],
			"name":"leg_hind_left_bot0",
			"rotation":[
				-0.036010630428791046,
				-0.9638659358024597,
				-0.060502320528030396,
				0.2569146752357483
			],
			"scale":[
				0.9999999403953552,
				0.9999996423721313,
				0.9999999403953552
			],
			"translation":[
				2.817448603309458e-07,
				15.993694305419922,
				1.2994687494938262e-06
			]
		},
		{
			"children":[
				30
			],
			"name":"leg_hind_left_top1",
			"rotation":[
				0.5312792658805847,
				0.841183066368103,
				0.05281137302517891,
				0.08581633120775223
			],
			"scale":[
				0.9999998807907104,
				0.9999999403953552,
				0.9999999403953552
			],
			"translation":[
				7.152557373046875e-07,
				8.416003227233887,
				1.5497207641601562e-06
			]
		},
		{
			"children":[
				31
			],
			"name":"leg_hind_left_top0",
			"rotation":[
				0.4233676791191101,
				0.6092810034751892,
				-0.5823697447776794,
				0.33223792910575867
			],
			"scale":[
				1,
				1.0000003576278687,
				1
			],
			"translation":[
				0.4514428675174713,
				9.582276344299316,
				-1.2132456302642822
			]
		},
		{
			"children":[
				20,
				26,
				32
			],
			"name":"body_bot",
			"rotation":[
				0.9998914003372192,
				0,
				0,
				0.014739408157765865
			],
			"scale":[
				1,
				1,
				1.000000238418579
			],
			"translation":[
				0,
				0.9967605471611023,
				-0.059683382511138916
			]
		},
		{
			"children":[
				17,
				33
			],
			"name":"body",
			"rotation":[
				-0.007830224931240082,
				0,
				0,
				0.9999693632125854
			],
			"translation":[
				0,
				-22.349882125854492,
				-14.622576713562012
			]
		},
		{
			"mesh":0,
			"name":"BlackBear",
			"skin":0
		},
		{
			"children":[
				35,
				34
			],
			"name":"rig",
			"rotation":[
				0.7071068286895752,
				0,
				0,
				0.7071068286895752
			]
		}
	],
	"materials":[
		{
			"doubleSided":true,
			"extensions":{
				"KHR_materials_specular":{
					"specularFactor":0
				}
			},
			"name":"BlackBear_mat",
			"pbrMetallicRoughness":{
				"baseColorTexture":{
					"index":0
				},
				"metallicFactor":0
			}
		}
	],
	"meshes":[
		{
			"name":"BlackBear",
			"primitives":[
				{
					"attributes":{
						"POSITION":0,
						"NORMAL":1,
						"TEXCOORD_0":2,
						"JOINTS_0":3,
						"WEIGHTS_0":4
					},
					"indices":5,
					"material":0
				}
			]
		}
	],
	"textures":[
		{
			"sampler":0,
			"source":0
		}
	],
	"images":[
		{
			"mimeType":"image/png",
			"name":"BlackBear_BaseColor",
			"uri":"BlackBear_BaseColor.png"
		}
	],
	"skins":[
		{
			"inverseBindMatrices":6,
			"joints":[
				34,
				17,
				16,
				3,
				2,
				1,
				0,
				9,
				8,
				7,
				6,
				5,
				4,
				15,
				14,
				13,
				12,
				11,
				10,
				33,
				20,
				19,
				18,
				26,
				25,
				24,
				23,
				22,
				21,
				32,
				31,
				30,
				29,
				28,
				27
			],
			"name":"rig"
		}
	],
	"accessors":[
		{
			"bufferView":0,
			"componentType":5126,
			"count":3611,
			"max":[
				16.521169662475586,
				25.25102424621582,
				39.86772918701172
			],
			"min":[
				-16.52116584777832,
				-25.251028060913086,
				-39.86773681640625
			],
			"type":"VEC3"
		},
		{
			"bufferView":1,
			"componentType":5126,
			"count":3611,
			"type":"VEC3"
		},
		{
			"bufferView":2,
			"componentType":5126,
			"count":3611,
			"type":"VEC2"
		},
		{
			"bufferView":3,
			"componentType":5121,
			"count":3611,
			"type":"VEC4"
		},
		{
			"bufferView":4,
			"componentType":5126,
			"count":3611,
			"type":"VEC4"
		},
		{
			"bufferView":5,
			"componentType":5123,
			"count":8796,
			"type":"SCALAR"
		},
		{
			"bufferView":6,
			"componentType":5126,
			"count":35,
			"type":"MAT4"
		}
	],
	"bufferViews":[
		{
			"buffer":0,
			"byteLength":43332,
			"byteOffset":0,
			"target":34962
		},
		{
			"buffer":0,
			"byteLength":43332,
			"byteOffset":43332,
			"target":34962
		},
		{
			"buffer":0,
			"byteLength":28888,
			"byteOffset":86664,
			"target":34962
		},
		{
			"buffer":0,
			"byteLength":14444,
			"byteOffset":115552,
			"target":34962
		},
		{
			"buffer":0,
			"byteLength":57776,
			"byteOffset":129996,
			"target":34962
		},
		{
			"buffer":0,
			"byteLength":17592,
			"byteOffset":187772,
			"target":34963
		},
		{
			"buffer":0,
			"byteLength":2240,
			"byteOffset":205364
		}
	],
	"samplers":[
		{
			"magFilter":9729,
			"minFilter":9987
		}
	],
	"buffers":[
		{
			"byteLength":207604,
			"uri":"BlackBear.bin"
		}
	]
}
